<svg xmlns="http://www.w3.org/2000/svg" viewBox="0 0 512 512">
  <defs>
    <linearGradient id="bgGrad" x1="0%" y1="0%" x2="100%" y2="100%">
      <stop offset="0%" stop-color="#ffb3c1" />
      <stop offset="100%" stop-color="#ff4d6d" />
    </linearGradient>
    <filter id="shadow" x="-10%" y="-10%" width="120%" height="120%">
      <feDropShadow dx="0" dy="8" stdDeviation="12" flood-color="#590d22" flood-opacity="0.15" />
    </filter>
  </defs>
  
  <rect width="512" height="512" rx="112" fill="url(#bgGrad)" />
  
  <g filter="url(#shadow)" fill="#ffffff">
    <!-- Abstract Brain / Puzzle Shape -->
    <path d="M256,128 c-35.3,0 -64,28.7 -64,64 c0,15.5 5.5,29.8 14.7,40.9 C185.3,243.6 170.7,262.5 170.7,288 c0,44.2 35.8,80 80,80 c2.9,0 5.7,-0.2 8.5,-0.4 c3.9,18.7 20.6,32.4 40.8,32.4 c22.1,0 40,-17.9 40,-40 c0,-11.5 -4.8,-21.9 -12.6,-29.3 c13.4,-11 21.9,-27.7 21.9,-46.7 c0,-28.9 -20.6,-53.1 -47.9,-60.9 C308.2,216.7 312,204.8 312,192 c0,-35.3 -28.7,-64 -64,-64 c-17.9,0 -34.1,7.4 -45.7,19.3 C198,138.8 206.5,128 256,128 Z M248,168 c22.1,0 40,17.9 40,40 c0,9.5 -3.3,18.2 -8.9,25 c-5.4,-7.8 -14.2,-13 -24.1,-13 c-16.6,0 -30,13.4 -30,30 c0,1.2 0.1,2.4 0.2,3.5 c-5.1,1.8 -10.5,2.9 -16.2,2.9 c-17.7,0 -32,-14.3 -32,-32 C177,203.2 208.6,168 248,168 Z" />
    <circle cx="280" cy="270" r="16" />
    <circle cx="220" cy="300" r="12" />
    <circle cx="260" cy="320" r="14" />
  </g>
</svg>
